<?xml version="1.0" standalone="no"?>
<!DOCTYPE svg PUBLIC "-//W3C//DTD SVG 20010904//EN"
 "http://www.w3.org/TR/2001/REC-SVG-20010904/DTD/svg10.dtd">
<svg version="1.0" xmlns="http://www.w3.org/2000/svg"
 width="500.000000pt" height="500.000000pt" viewBox="0 0 500.000000 500.000000"
 preserveAspectRatio="xMidYMid meet">
<metadata>
Created by potrace 1.11, written by Peter Selinger 2001-2013
</metadata>
<g transform="translate(0.000000,500.000000) scale(0.100000,-0.100000)"
fill="#000000" stroke="none">
<path d="M3297 4643 c-4 -141 -7 -317 -7 -390 0 -120 2 -133 15 -119 8 8 15
21 15 30 0 8 10 27 23 43 13 15 41 60 62 98 21 39 58 95 82 125 170 215 217
253 367 299 37 11 70 21 72 21 2 0 4 -849 4 -1887 0 -1881 -4 -2099 -35 -2267
-8 -43 -15 -81 -15 -85 -1 -3 -23 53 -51 124 -27 72 -65 164 -83 205 -19 41
-62 150 -97 242 -35 92 -69 168 -74 168 -6 0 -37 -13 -70 -29 -33 -16 -134
-57 -225 -91 -91 -35 -214 -83 -275 -107 -60 -25 -220 -87 -355 -139 -135 -52
-269 -106 -299 -120 -30 -14 -167 -68 -305 -120 -138 -53 -267 -104 -287 -114
-19 -10 -156 -64 -304 -120 -148 -56 -278 -108 -289 -115 -12 -7 -133 -55
-270 -106 -259 -98 -259 -98 -280 -166 l-7 -23 1735 0 c955 0 1736 2 1736 5 0
2 -11 34 -25 70 l-24 65 319 0 320 0 0 49 c0 48 0 49 -37 56 -56 10 -129 51
-157 87 -41 55 -94 178 -110 258 -33 166 -36 324 -36 2242 l0 1910 33 -7 c17
-4 66 -21 107 -38 109 -44 253 -188 387 -386 54 -80 103 -156 110 -170 14 -32
16 120 6 502 l-6 257 -832 0 -832 0 -6 -257z"/>
<path d="M750 4861 c0 -17 -591 -3448 -636 -3691 -42 -230 -80 -409 -104 -490
-6 -20 -10 -155 -10 -317 l0 -283 205 0 205 0 0 48 c0 47 0 47 -53 72 -125 60
-190 236 -190 515 0 167 16 303 73 630 43 243 110 640 110 649 0 3 150 6 333
6 l332 0 58 -333 59 -332 -92 -225 c-51 -124 -103 -254 -115 -290 -12 -36 -39
-107 -60 -158 -20 -51 -35 -95 -32 -98 5 -6 274 94 332 123 22 11 150 62 285
113 135 51 261 101 281 111 20 10 151 62 290 114 140 53 270 105 290 115 19
10 157 64 305 120 148 56 274 106 279 110 6 5 129 54 274 109 145 55 266 103
269 105 7 7 -77 228 -92 242 -6 5 -36 20 -66 32 -219 85 -300 115 -368 137
-42 14 -84 28 -92 32 -8 3 -17 7 -20 8 -3 1 -12 5 -20 8 -8 4 -53 20 -100 37
-47 17 -94 35 -105 40 -36 17 -202 78 -307 113 -94 32 -390 144 -480 182 -21
8 -38 13 -38 11 0 -2 -35 9 -77 25 -43 16 -83 29 -88 29 -6 0 -23 -35 -39 -77
-16 -43 -34 -91 -42 -108 -8 -16 -38 -89 -67 -161 l-53 -131 -248 1351 c-136
743 -254 1388 -263 1434 l-15 82 -54 0 c-30 0 -54 -4 -54 -9z m230 -2683 c0
-17 -21 -18 -300 -18 -165 0 -300 1 -300 3 0 2 65 389 145 860 80 471 145 863
146 869 1 17 309 -1691 309 -1714z"/>
<path d="M1350 4837 c0 -20 7 -24 67 -34 85 -15 138 -51 172 -118 l26 -49 0
-661 0 -661 -25 -48 c-34 -66 -90 -104 -173 -119 -60 -10 -67 -14 -67 -34 l0
-23 315 0 315 0 0 25 c0 21 -5 25 -28 25 -51 0 -131 30 -169 63 -20 18 -46 52
-57 77 -20 44 -21 61 -24 675 -2 538 -1 628 11 615 8 -8 285 -345 617 -747
l603 -733 38 0 38 0 3 768 c3 714 4 770 21 807 37 82 110 133 203 142 48 5 54
8 54 29 l0 24 -315 0 -315 0 0 -23 c0 -20 7 -24 67 -34 83 -15 138 -52 171
-114 35 -70 43 -196 40 -696 l-3 -441 -530 654 -530 653 -262 1 -263 0 0 -23z"/>
<path d="M1770 2980 c-4 -8 -20 -49 -35 -90 -15 -41 -32 -80 -37 -86 -9 -12
15 -44 33 -44 9 0 241 -86 409 -152 75 -30 152 -57 180 -63 8 -2 16 -4 18 -5
1 -2 5 -3 10 -5 4 -1 14 -5 22 -8 8 -4 53 -20 100 -37 47 -17 94 -35 105 -40
36 -17 208 -81 280 -104 39 -13 128 -44 198 -70 71 -27 130 -46 133 -44 2 3
-2 18 -10 34 -8 16 -40 93 -71 172 -30 79 -60 151 -66 160 -5 9 -43 103 -83
207 l-74 190 -552 0 c-481 0 -553 -2 -560 -15z"/>
</g>
</svg>
